<?xml version="1.0" encoding="UTF-8"?>
<svg xmlns="http://www.w3.org/2000/svg" version="1.1" viewBox="0 0 1000 1000">
  <defs>
    <style>
      .cls-1, .cls-2, .cls-3, .cls-4, .cls-5, .cls-6, .cls-7, .cls-8 {
        stroke: #231f20;
      }

      .cls-1, .cls-2, .cls-3, .cls-4, .cls-5, .cls-7 {
        stroke-miterlimit: 10;
      }

      .cls-1, .cls-3, .cls-4, .cls-5, .cls-6, .cls-8 {
        stroke-width: 15px;
      }

      .cls-1, .cls-3, .cls-6 {
        fill: none;
      }

      .cls-2 {
        fill: #f37774;
      }

      .cls-2, .cls-3, .cls-5, .cls-7 {
        stroke-linecap: round;
      }

      .cls-2, .cls-7 {
        stroke-width: 10px;
      }

      .cls-4, .cls-5 {
        fill: #6fb9b2;
      }

      .cls-6, .cls-8 {
        stroke-linejoin: round;
      }

      .cls-7, .cls-8 {
        fill: #f9f9fa;
      }

      .cls-9 {
        display: none;
      }
    </style>
  </defs>
  <!-- Generator: Adobe Illustrator 28.7.1, SVG Export Plug-In . SVG Version: 1.2.0 Build 142)  -->
  <g>
    <g id="Layer_1" class="cls-9">
      <path class="cls-1" d="M703.08,326.52"/>
      <g>
        <path class="cls-1" d="M702.78,389.33l-134.01-.64c-11.77-.06-21.27-9.65-21.22-21.42l.58-121.73"/>
        <path class="cls-1" d="M184.49,750.3c41.65,6.91,84.83,4.46,125.44-7.13,22.39-6.39,44.58-15.9,61.08-32.33,16.5-16.43,26.43-40.85,20.88-63.46-1.15-4.67-3.1-9.43-6.95-12.31-3.27-2.45-7.48-3.21-11.54-3.7-13.23-1.6-26.72-1.03-39.77,1.68-15.78,3.28-33.11,12.4-35.29,28.36-1.15,8.4,2.4,16.91,7.82,23.43,17.61,21.17,53.71,20.37,73.68,1.4s24.04-50.93,14.07-76.61c-3.58-9.21-9.12-18.17-17.74-22.99-14.84-8.31-33.36-2.08-50.27-3.94-17.61-1.94-33.85-13.59-41.32-29.66-3.91-8.4-4.43-27.15-4.43-27.15,2.1-85.23,73.75-123.35,49.1-172-7.07-13.94-22.73-30.99-27.17-62.54-1.93-13.72-.06-33.4-.06-33.4,0-6.69,5.42-12.11,12.11-12.11h228.72c3.02,0,5.93,1.14,8.16,3.19l148.19,136.71c2.47,2.28,3.87,5.48,3.87,8.84v338.18c0,6.64-5.39,12.03-12.03,12.03h-196.88"/>
      </g>
    </g>
    <g id="Layer_2" class="cls-9">
      <path class="cls-6" d="M162.04,551.67"/>
      <path class="cls-8" d="M381.53,987.42h519.5c12.94,0,23.43-10.49,23.43-23.43V305.17c0-6.54-2.74-12.79-7.54-17.22L628.23,21.63c-4.33-3.99-10-6.21-15.89-6.21H166.77c-13.03,0-24.89,8.61-24.89,21.64l-.29,460.07s-7.14,68.61,90.04,134.04c16.53,11.13,238.57,157.13,200.37,207.95-33.44,35.77-95,6.73-149.94-19.82-54.94-26.54-109.98-64.83-135.14-53.57-29.2,21.84,35.64,68.73,76.01,100.5,40.38,31.76,72.34,51.64,62.78,75.1-3.78,7.7-12.34,10.5-20.78,10.8-18.14.72-39.16-8-56.96-14.41-17.8-6.42-52.3-30.29-58.87-8.55-3.6,18.57,35.75,56.09,37.98,58.26"/>
      <path class="cls-4" d="M622.67,23.86l-1.13,246.11c-.11,22.94,18.4,41.62,41.33,41.73l261.06,1.24"/>
      <path class="cls-6" d="M381.53,987.42h519.5c12.94,0,23.43-10.49,23.43-23.43V305.17c0-6.54-2.74-12.79-7.54-17.22L628.23,21.63c-4.33-3.99-10-6.21-15.89-6.21H166.77c-13.03,0-24.89,8.61-24.89,21.64l-.29,460.07s-7.14,68.61,90.04,134.04c16.53,11.13,238.57,157.13,200.37,207.95-33.44,35.77-95,6.73-149.94-19.82-54.94-26.54-109.98-64.83-135.14-53.57-29.2,21.84,35.64,68.73,76.01,100.5,40.38,31.76,72.34,51.64,62.78,75.1-3.78,7.7-12.34,10.5-20.78,10.8-18.14.72-39.16-8-56.96-14.41-17.8-6.42-52.3-30.29-58.87-8.55-3.6,18.57,35.75,56.09,37.98,58.26"/>
      <line class="cls-3" x1="268.14" y1="566.56" x2="772.74" y2="566.56"/>
      <line class="cls-3" x1="262.76" y1="439.75" x2="772.74" y2="439.75"/>
      <circle class="cls-5" cx="386.53" cy="213.51" r="133.91"/>
      <path class="cls-2" d="M481.61,308.77c-11.03-42.21-49.42-73.35-95.08-73.35s-84.05,31.15-95.08,73.35h0c24.26,24.47,57.91,39.62,95.09,39.62s70.82-15.15,95.09-39.62"/>
      <circle class="cls-7" cx="386.53" cy="188.85" r="38.77"/>
    </g>
    <g id="Layer_2_copy">
      <path class="cls-6" d="M183.24,543.02"/>
      <path class="cls-8" d="M371.15,916.09h444.77c11.08,0,20.06-8.98,20.06-20.06V331.99c0-5.6-2.34-10.95-6.46-14.75l-247.16-228.01c-3.71-3.42-8.56-5.32-13.6-5.32H187.28c-11.16,0-21.31,7.37-21.31,18.53l-.25,393.88s-6.11,58.74,77.09,114.76c14.15,9.53,204.25,134.53,171.55,178.04-28.63,30.62-81.33,5.76-128.37-16.97-47.04-22.73-94.16-55.5-115.7-45.87-25,18.7,30.51,58.85,65.08,86.04,34.57,27.2,61.93,44.21,53.75,64.29-3.24,6.59-10.56,8.99-17.79,9.24-15.53.62-33.53-6.85-48.76-12.34-15.24-5.49-44.78-25.94-50.4-7.32-3.08,15.9,30.6,48.02,32.52,49.88"/>
      <path class="cls-4" d="M568.18,84.29l-.97,210.7c-.09,19.64,15.75,35.63,35.39,35.72l233.38,1.06"/>
      <path class="cls-6" d="M371.15,916.09h444.77c11.08,0,20.06-8.98,20.06-20.06V331.99c0-5.6-2.34-10.95-6.46-14.75l-247.16-228.01c-3.71-3.42-8.56-5.32-13.6-5.32H187.28c-11.16,0-21.31,7.37-21.31,18.53l-.25,393.88s-6.11,58.74,77.09,114.76c14.15,9.53,204.25,134.53,171.55,178.04-28.63,30.62-81.33,5.76-128.37-16.97-47.04-22.73-94.16-55.5-115.7-45.87-25,18.7,30.51,58.85,65.08,86.04,34.57,27.2,61.93,44.21,53.75,64.29-3.24,6.59-10.56,8.99-17.79,9.24-15.53.62-33.53-6.85-48.76-12.34-15.24-5.49-44.78-25.94-50.4-7.32-3.08,15.9,30.6,48.02,32.52,49.88"/>
    </g>
  </g>
</svg>